<?xml version="1.0" encoding="UTF-8"?>
<!DOCTYPE svg PUBLIC "-//W3C//DTD SVG 1.1//EN" "http://www.w3.org/Graphics/SVG/1.1/DTD/svg11.dtd">
<!-- Creator: CorelDRAW 2020 (64 Bit) -->
<svg xmlns="http://www.w3.org/2000/svg" xml:space="preserve" width="11.8399mm" height="6.9063mm" version="1.1" style="shape-rendering:geometricPrecision; text-rendering:geometricPrecision; image-rendering:optimizeQuality; fill-rule:evenodd; clip-rule:evenodd"
viewBox="0 0 24.08 14.05"
 xmlns:xlink="http://www.w3.org/1999/xlink"
 xmlns:xodm="http://www.corel.com/coreldraw/odm/2003">
 <defs>
  <style type="text/css">
   <![CDATA[
    .fil3 {fill:#FEFEFE;fill-rule:nonzero}
    .fil1 {fill:#EDC337;fill-rule:nonzero}
    .fil0 {fill:#48954E;fill-rule:nonzero}
    .fil2 {fill:#403972;fill-rule:nonzero}
   ]]>
  </style>
 </defs>
 <g id="Camada_x0020_1">
  <metadata id="CorelCorpID_0Corel-Layer"/>
  <g id="_1892415172256">
   <polygon class="fil0" points="-0,14.05 24.08,14.05 24.08,0 -0,0 "/>
   <polygon class="fil1" points="3.71,7.02 12.04,12.34 20.37,7.02 12.04,1.71 "/>
   <path class="fil2" d="M15.55 7.02c0,1.94 -1.57,3.51 -3.51,3.51 -1.94,0 -3.51,-1.57 -3.51,-3.51 0,-1.94 1.57,-3.51 3.51,-3.51 1.94,0 3.51,1.58 3.51,3.51z"/>
   <path class="fil3" d="M10.04 5.52c-0.41,0 -0.81,0.03 -1.21,0.09 -0.08,0.17 -0.14,0.35 -0.19,0.54 0.45,-0.08 0.92,-0.12 1.39,-0.12 2.06,0 3.94,0.78 5.36,2.05 0.06,-0.18 0.1,-0.37 0.12,-0.56 -1.48,-1.25 -3.39,-2 -5.48,-2z"/>
   <polygon class="fil3" points="13.13,5.78 13.08,5.93 13.16,5.95 "/>
   <polygon class="fil3" points="13.13,5.78 13.18,5.93 13.11,5.95 "/>
   <polygon class="fil3" points="13.27,5.89 13.12,5.89 13.12,5.96 "/>
   <polygon class="fil3" points="13.27,5.89 13.15,5.98 13.11,5.91 "/>
   <polygon class="fil3" points="12.99,5.89 13.11,5.98 13.15,5.91 "/>
   <polygon class="fil3" points="12.99,5.89 13.14,5.89 13.14,5.96 "/>
   <polygon class="fil3" points="13.22,6.06 13.17,5.91 13.1,5.94 "/>
   <polygon class="fil3" points="13.22,6.06 13.1,5.97 13.14,5.91 "/>
   <polygon class="fil3" points="13.04,6.06 13.16,5.97 13.12,5.91 "/>
   <path class="fil3" d="M13.04 6.06l0.05 -0.14 0.07 0.02 -0.12 0.12zm-1.03 3.75l0.01 -0.03 -0.03 -0.02 0.04 0 0.01 -0.04 0.01 0.04 0.04 0 -0.03 0.02 0.01 0.03 -0.03 -0.02 -0.03 0.02zm-1.47 -0.8l0.04 -0.1 -0.09 -0.06 0.11 0 0.03 -0.11 0.03 0.11 0.11 0 -0.09 0.06 0.03 0.1 -0.09 -0.06 -0.09 0.06zm2.21 0.06l0.02 -0.07 -0.06 -0.04 0.07 0 0.02 -0.07 0.02 0.07 0.07 0 -0.06 0.04 0.02 0.07 -0.06 -0.04 -0.06 0.04zm0.58 0.09l0.02 -0.07 -0.06 -0.04 0.07 0 0.02 -0.07 0.02 0.07 0.07 0 -0.06 0.04 0.02 0.07 -0.06 -0.04 -0.06 0.04zm-0.32 0.33l0.03 -0.09 -0.07 -0.05 0.09 0 0.03 -0.09 0.03 0.09 0.09 0 -0.07 0.05 0.03 0.09 -0.07 -0.05 -0.07 0.05zm-1.2 -1.29l0.02 -0.05 -0.04 -0.03 0.05 0 0.02 -0.05 0.02 0.05 0.05 0 -0.04 0.03 0.02 0.05 -0.04 -0.03 -0.04 0.03zm-0.19 -0.22l0.02 -0.07 -0.06 -0.04 0.07 0 0.02 -0.07 0.02 0.07 0.07 0 -0.06 0.04 0.02 0.07 -0.06 -0.04 -0.06 0.04zm0.34 -0.3l0.03 -0.09 -0.07 -0.05 0.09 0 0.03 -0.09 0.03 0.09 0.09 0 -0.07 0.05 0.03 0.09 -0.07 -0.05 -0.07 0.05zm0.4 0.32l0.03 -0.09 -0.07 -0.05 0.09 0 0.03 -0.09 0.03 0.09 0.09 0 -0.07 0.05 0.03 0.09 -0.07 -0.05 -0.07 0.05zm-0.42 0.72l0.03 -0.11 -0.09 -0.06 0.11 0 0.03 -0.1 0.03 0.1 0.11 0 -0.09 0.06 0.03 0.1 -0.09 -0.06 -0.09 0.06zm0.99 -1.79l0.02 -0.07 -0.06 -0.04 0.07 0 0.02 -0.07 0.02 0.07 0.07 0 -0.06 0.04 0.02 0.07 -0.06 -0.04 -0.06 0.04zm-2.31 0.34l0.03 -0.09 -0.07 -0.05 0.09 0 0.03 -0.09 0.03 0.09 0.09 0 -0.07 0.05 0.03 0.09 -0.07 -0.05 -0.08 0.05zm3.1 1.77l0.02 -0.07 -0.06 -0.04 0.07 0 0.02 -0.07 0.02 0.07 0.07 0 -0.06 0.04 0.02 0.07 -0.06 -0.04 -0.06 0.04zm0.63 -0.09l0.03 -0.08 -0.07 -0.05 0.09 0 0.03 -0.09 0.03 0.09 0.09 0 -0.07 0.05 0.03 0.08 -0.07 -0.05 -0.07 0.05zm-0.27 0.16l0.02 -0.07 -0.06 -0.04 0.07 0 0.02 -0.07 0.02 0.07 0.07 0 -0.06 0.04 0.02 0.07 -0.06 -0.04 -0.06 0.04zm-0.35 0.63l0.02 -0.07 -0.06 -0.04 0.07 0 0.02 -0.07 0.02 0.07 0.07 0 -0.06 0.04 0.02 0.07 -0.06 -0.04 -0.06 0.04zm-0.01 -0.33l0.03 -0.09 -0.07 -0.05 0.09 0 0.03 -0.09 0.03 0.09 0.09 0 -0.07 0.05 0.03 0.09 -0.07 -0.05 -0.07 0.05zm0.84 -0.74l0.03 -0.09 -0.07 -0.05 0.09 0 0.03 -0.09 0.03 0.09 0.09 0 -0.07 0.05 0.03 0.09 -0.07 -0.06 -0.07 0.06zm0.36 -0.3l0.02 -0.07 -0.06 -0.04 0.07 0 0.02 -0.07 0.02 0.07 0.07 0 -0.06 0.04 0.02 0.07 -0.06 -0.04 -0.06 0.04zm-0.52 0.01l0.03 -0.1 -0.09 -0.06 0.11 0 0.03 -0.1 0.03 0.1 0.11 0 -0.09 0.06 0.04 0.1 -0.09 -0.06 -0.09 0.06zm-4.38 0.29l0.03 -0.09 -0.07 -0.05 0.09 0 0.03 -0.09 0.03 0.09 0.09 0 -0.07 0.05 0.03 0.09 -0.07 -0.05 -0.07 0.05zm0.11 -0.35l0.03 -0.08 -0.07 -0.05 0.09 0 0.03 -0.09 0.03 0.09 0.09 0 -0.07 0.05 0.03 0.09 -0.07 -0.05 -0.07 0.05zm-0.36 -0.6l0.02 -0.05 -0.04 -0.03 0.05 0 0.02 -0.05 0.02 0.05 0.05 0 -0.04 0.03 0.02 0.05 -0.04 -0.03 -0.04 0.03zm-0.79 0.55l0.02 -0.07 -0.06 -0.04 0.07 0 0.02 -0.07 0.02 0.07 0.07 0 -0.06 0.04 0.02 0.07 -0.06 -0.04 -0.06 0.04zm0.4 -0.27l0.03 -0.1 -0.09 -0.06 0.11 0 0.04 -0.1 0.03 0.1 0.11 0 -0.09 0.06 0.03 0.1 -0.09 -0.07 -0.09 0.07zm-0.31 -1.48l0.03 -0.1 -0.09 -0.06 0.11 0 0.03 -0.1 0.03 0.1 0.11 0 -0.09 0.06 0.03 0.1 -0.09 -0.06 -0.09 0.06z"/>
  </g>
 </g>
</svg>
