<?xml version="1.0" encoding="UTF-8"?>
<!DOCTYPE svg PUBLIC "-//W3C//DTD SVG 1.1//EN" "http://www.w3.org/Graphics/SVG/1.1/DTD/svg11.dtd">
<!-- Creator: CorelDRAW 2020 (64 Bit) -->
<svg xmlns="http://www.w3.org/2000/svg" xml:space="preserve" width="8.756mm" height="4.5805mm" version="1.1" style="shape-rendering:geometricPrecision; text-rendering:geometricPrecision; image-rendering:optimizeQuality; fill-rule:evenodd; clip-rule:evenodd"
viewBox="0 0 81.54 42.66"
 xmlns:xlink="http://www.w3.org/1999/xlink"
 xmlns:xodm="http://www.corel.com/coreldraw/odm/2003">
 <defs>
  <style type="text/css">
   <![CDATA[
    .fil0 {fill:black;fill-rule:nonzero}
   ]]>
  </style>
 </defs>
 <g id="Camada_x0020_1">
  <metadata id="CorelCorpID_0Corel-Layer"/>
  <path class="fil0" d="M29.1 36.67c-2.58,2.19 -5.06,3.73 -7.44,4.64 -2.38,0.91 -4.93,1.35 -7.66,1.35 -4.49,0 -7.95,-1.09 -10.37,-3.28 -2.42,-2.18 -3.63,-4.98 -3.63,-8.38 0,-2 0.46,-3.82 1.37,-5.48 0.92,-1.66 2.11,-2.97 3.59,-3.97 1.48,-1 3.14,-1.76 4.99,-2.27 1.37,-0.35 3.43,-0.7 6.18,-1.04 5.6,-0.66 9.74,-1.46 12.38,-2.38 0.03,-0.95 0.04,-1.55 0.04,-1.8 0,-2.81 -0.66,-4.8 -1.97,-5.95 -1.77,-1.56 -4.42,-2.34 -7.91,-2.34 -3.27,0 -5.69,0.58 -7.24,1.72 -1.56,1.14 -2.71,3.17 -3.46,6.08l-6.78 -0.95c0.62,-2.9 1.63,-5.26 3.05,-7.04 1.42,-1.79 3.47,-3.15 6.15,-4.13 2.67,-0.96 5.78,-1.45 9.3,-1.45 3.5,0 6.35,0.41 8.54,1.24 2.18,0.83 3.8,1.85 4.82,3.1 1.02,1.25 1.75,2.83 2.17,4.73 0.22,1.18 0.34,3.31 0.34,6.37l0 9.2c0,6.43 0.14,10.49 0.43,12.21 0.28,1.72 0.85,3.36 1.7,4.94l-7.25 0c-0.7,-1.46 -1.14,-3.17 -1.34,-5.12zm-0.55 -15.38c-2.52,1.02 -6.31,1.89 -11.35,2.6 -2.86,0.41 -4.89,0.87 -6.07,1.38 -1.18,0.51 -2.09,1.26 -2.73,2.23 -0.64,0.99 -0.97,2.08 -0.97,3.29 0,1.83 0.7,3.36 2.1,4.59 1.41,1.22 3.46,1.84 6.15,1.84 2.67,0 5.05,-0.58 7.14,-1.75 2.08,-1.16 3.61,-2.75 4.59,-4.76 0.75,-1.56 1.12,-3.86 1.12,-6.9l0.04 -2.52zm44.41 15.38c-2.58,2.19 -5.06,3.73 -7.44,4.64 -2.38,0.91 -4.93,1.35 -7.66,1.35 -4.49,0 -7.95,-1.09 -10.37,-3.28 -2.42,-2.18 -3.63,-4.98 -3.63,-8.38 0,-2 0.46,-3.82 1.37,-5.48 0.92,-1.66 2.11,-2.97 3.59,-3.97 1.48,-1 3.14,-1.76 4.99,-2.27 1.37,-0.35 3.43,-0.7 6.18,-1.04 5.6,-0.66 9.74,-1.46 12.38,-2.38 0.03,-0.95 0.04,-1.55 0.04,-1.8 0,-2.81 -0.66,-4.8 -1.97,-5.95 -1.77,-1.56 -4.42,-2.34 -7.91,-2.34 -3.27,0 -5.69,0.58 -7.24,1.72 -1.56,1.14 -2.71,3.17 -3.46,6.08l-6.78 -0.95c0.62,-2.9 1.63,-5.26 3.05,-7.04 1.42,-1.79 3.47,-3.15 6.15,-4.13 2.67,-0.96 5.78,-1.45 9.3,-1.45 3.5,0 6.35,0.41 8.54,1.24 2.18,0.83 3.8,1.85 4.82,3.1 1.02,1.25 1.75,2.83 2.17,4.73 0.22,1.18 0.34,3.31 0.34,6.37l0 9.2c0,6.43 0.14,10.49 0.43,12.21 0.28,1.72 0.85,3.36 1.7,4.94l-7.25 0c-0.7,-1.46 -1.14,-3.17 -1.34,-5.12zm-0.55 -15.38c-2.52,1.02 -6.31,1.89 -11.35,2.6 -2.86,0.41 -4.89,0.87 -6.07,1.38 -1.18,0.51 -2.09,1.26 -2.73,2.23 -0.64,0.99 -0.97,2.08 -0.97,3.29 0,1.83 0.7,3.36 2.1,4.59 1.41,1.22 3.46,1.84 6.15,1.84 2.67,0 5.05,-0.58 7.14,-1.75 2.08,-1.16 3.61,-2.75 4.59,-4.76 0.75,-1.56 1.12,-3.86 1.12,-6.9l0.04 -2.52z"/>
 </g>
</svg>
