<?xml version="1.0" encoding="UTF-8"?>
<!DOCTYPE svg PUBLIC "-//W3C//DTD SVG 1.1//EN" "http://www.w3.org/Graphics/SVG/1.1/DTD/svg11.dtd">
<!-- Creator: CorelDRAW 2020 (64 Bit) -->
<svg xmlns="http://www.w3.org/2000/svg" xml:space="preserve" width="9.6097mm" height="6.2654mm" version="1.1" style="shape-rendering:geometricPrecision; text-rendering:geometricPrecision; image-rendering:optimizeQuality; fill-rule:evenodd; clip-rule:evenodd"
viewBox="0 0 97.34 63.46"
 xmlns:xlink="http://www.w3.org/1999/xlink"
 xmlns:xodm="http://www.corel.com/coreldraw/odm/2003">
 <defs>
  <style type="text/css">
   <![CDATA[
    .fil0 {fill:black;fill-rule:nonzero}
   ]]>
  </style>
 </defs>
 <g id="Camada_x0020_1">
  <metadata id="CorelCorpID_0Corel-Layer"/>
  <path class="fil0" d="M-0 42.71l7.63 -0.69c0.36,3.09 1.2,5.62 2.53,7.6 1.33,1.97 3.39,3.57 6.17,4.8 2.79,1.21 5.93,1.83 9.42,1.83 3.1,0 5.83,-0.46 8.2,-1.39 2.37,-0.93 4.13,-2.2 5.29,-3.82 1.16,-1.62 1.74,-3.37 1.74,-5.26 0,-1.92 -0.56,-3.59 -1.67,-5.03 -1.12,-1.43 -2.96,-2.63 -5.53,-3.62 -1.64,-0.63 -5.29,-1.63 -10.93,-2.99 -5.64,-1.36 -9.59,-2.63 -11.85,-3.83 -2.93,-1.54 -5.1,-3.46 -6.53,-5.73 -1.44,-2.27 -2.16,-4.83 -2.16,-7.65 0,-3.12 0.89,-6.02 2.64,-8.7 1.76,-2.7 4.32,-4.75 7.7,-6.15 3.37,-1.4 7.13,-2.1 11.26,-2.1 4.54,0 8.56,0.73 12.03,2.2 3.47,1.46 6.15,3.62 8.02,6.47 1.87,2.84 2.87,6.07 3.02,9.68l-7.8 0.6c-0.42,-3.87 -1.83,-6.8 -4.25,-8.78 -2.41,-1.99 -5.99,-2.97 -10.71,-2.97 -4.92,0 -8.5,0.9 -10.75,2.7 -2.24,1.8 -3.37,3.97 -3.37,6.52 0,2.2 0.8,4.02 2.39,5.45 1.57,1.42 5.65,2.89 12.25,4.37 6.6,1.5 11.13,2.8 13.59,3.92 3.56,1.64 6.2,3.72 7.9,6.25 1.7,2.52 2.54,5.42 2.54,8.7 0,3.27 -0.93,6.33 -2.8,9.22 -1.87,2.89 -4.54,5.13 -8.05,6.73 -3.5,1.6 -7.43,2.4 -11.82,2.4 -5.55,0 -10.19,-0.81 -13.94,-2.43 -3.76,-1.61 -6.69,-4.04 -8.82,-7.3 -2.14,-3.24 -3.26,-6.92 -3.37,-11.02zm89.27 5.32l7.8 1.03c-1.22,4.53 -3.49,8.06 -6.8,10.56 -3.32,2.5 -7.55,3.76 -12.71,3.76 -6.49,0 -11.63,-2 -15.44,-6 -3.8,-3.99 -5.7,-9.61 -5.7,-16.82 0,-7.46 1.92,-13.26 5.76,-17.38 3.84,-4.13 8.83,-6.19 14.97,-6.19 5.93,0 10.78,2.02 14.54,6.06 3.76,4.04 5.65,9.73 5.65,17.07 0,0.44 -0.01,1.12 -0.04,2l-33.15 0c0.29,4.87 1.66,8.62 4.14,11.21 2.47,2.59 5.57,3.89 9.28,3.89 2.76,0 5.12,-0.73 7.06,-2.19 1.96,-1.46 3.5,-3.79 4.65,-6.99zm-24.7 -12.09l24.78 0c-0.33,-3.74 -1.29,-6.55 -2.84,-8.42 -2.39,-2.9 -5.5,-4.36 -9.32,-4.36 -3.46,0 -6.36,1.16 -8.72,3.47 -2.34,2.32 -3.64,5.42 -3.9,9.3z"/>
 </g>
</svg>
