<?xml version="1.0" encoding="UTF-8"?>
<!DOCTYPE svg PUBLIC "-//W3C//DTD SVG 1.1//EN" "http://www.w3.org/Graphics/SVG/1.1/DTD/svg11.dtd">
<!-- Creator: CorelDRAW 2020 (64 Bit) -->
<svg xmlns="http://www.w3.org/2000/svg" xml:space="preserve" width="11.3228mm" height="6.0622mm" version="1.1" style="shape-rendering:geometricPrecision; text-rendering:geometricPrecision; image-rendering:optimizeQuality; fill-rule:evenodd; clip-rule:evenodd"
viewBox="0 0 132.74 71.07"
 xmlns:xlink="http://www.w3.org/1999/xlink"
 xmlns:xodm="http://www.corel.com/coreldraw/odm/2003">
 <defs>
  <style type="text/css">
   <![CDATA[
    .fil0 {fill:black;fill-rule:nonzero}
   ]]>
  </style>
 </defs>
 <g id="Camada_x0020_1">
  <metadata id="CorelCorpID_0Corel-Layer"/>
  <path class="fil0" d="M-0 71.07l27.26 -71.07 10.34 0 28.93 71.07 -10.7 0 -8.22 -21.54 -29.93 0 -7.71 21.54 -9.98 0zm20.45 -29.18l24.22 0 -7.41 -19.7c-2.23,-5.99 -3.92,-10.94 -5.09,-14.84 -0.98,4.63 -2.28,9.18 -3.92,13.68l-7.79 20.86zm45.76 29.18l27.26 -71.07 10.34 0 28.93 71.07 -10.7 0 -8.22 -21.54 -29.93 0 -7.71 21.54 -9.98 0zm20.45 -29.18l24.22 0 -7.41 -19.7c-2.23,-5.99 -3.92,-10.94 -5.09,-14.84 -0.98,4.63 -2.28,9.18 -3.92,13.68l-7.79 20.86z"/>
 </g>
</svg>
