<?xml version="1.0" encoding="UTF-8"?>
<!DOCTYPE svg PUBLIC "-//W3C//DTD SVG 1.1//EN" "http://www.w3.org/Graphics/SVG/1.1/DTD/svg11.dtd">
<!-- Creator: CorelDRAW 2020 (64 Bit) -->
<svg xmlns="http://www.w3.org/2000/svg" xml:space="preserve" width="107.68mm" height="32.5143mm" version="1.1" style="shape-rendering:geometricPrecision; text-rendering:geometricPrecision; image-rendering:optimizeQuality; fill-rule:evenodd; clip-rule:evenodd"
viewBox="0 0 4643.87 1402.23"
 xmlns:xlink="http://www.w3.org/1999/xlink"
 xmlns:xodm="http://www.corel.com/coreldraw/odm/2003">
 <defs>
  <style type="text/css">
   <![CDATA[
    .fil0 {fill:white;fill-rule:nonzero}
    .fil1 {fill:url(#id0)}
    .fil2 {fill:url(#id1);fill-rule:nonzero}
   ]]>
  </style>
  <linearGradient id="id0" gradientUnits="userSpaceOnUse" x1="655.02" y1="-7.08" x2="277.82" y2="1400.72">
   <stop offset="0" style="stop-opacity:1; stop-color:#1BB251"/>
   <stop offset="1" style="stop-opacity:1; stop-color:#C8FF00"/>
  </linearGradient>
  <linearGradient id="id1" gradientUnits="userSpaceOnUse" xlink:href="#id0" x1="3244.98" y1="692.24" x2="3245.01" y2="1232.65">
  </linearGradient>
 </defs>
 <g id="Camada_x0020_1">
  <metadata id="CorelCorpID_0Corel-Layer"/>
  <path class="fil0" d="M53.7 160.55l-53.3 285.99c-1.22,6.52 0.37,12.63 4.61,17.73 4.24,5.1 9.95,7.78 16.59,7.78l168.46 0c10.48,0 19.28,-7.31 21.2,-17.61l6.43 -34.54c1.92,-10.31 10.72,-17.61 21.2,-17.61l139.71 0c6.62,0 12.33,2.67 16.57,7.76 4.24,5.09 5.84,11.19 4.64,17.7l-112.5 611.27c-1.9,10.33 -10.71,17.66 -21.21,17.66l-71.81 0c-10.48,0 -19.28,7.31 -21.2,17.61l-32.95 176.79c-1.22,6.52 0.38,12.63 4.61,17.73 4.24,5.11 9.95,7.78 16.59,7.78l426.3 0c10.48,0 19.28,-7.31 21.2,-17.61l32.95 -176.79c1.22,-6.52 -0.37,-12.63 -4.61,-17.73 -4.24,-5.11 -9.95,-7.78 -16.59,-7.78l-51.29 0c-6.62,0 -12.33,-2.67 -16.57,-7.76 -4.24,-5.09 -5.84,-11.19 -4.64,-17.7l112.5 -611.27c1.9,-10.33 10.71,-17.66 21.21,-17.66l141.12 0c6.64,0 12.35,2.68 16.59,7.78 4.24,5.1 5.83,11.21 4.61,17.73l-3.49 18.74c-1.22,6.52 0.37,12.63 4.61,17.73 4.24,5.1 9.95,7.78 16.59,7.78l194.26 0c10.48,0 19.28,-7.31 21.2,-17.61l53.3 -285.99c1.22,-6.52 -0.37,-12.63 -4.61,-17.73 -4.24,-5.1 -9.95,-7.78 -16.59,-7.78l-1034.5 0c-10.48,0 -19.28,7.31 -21.2,17.61z"/>
  <path class="fil1" d="M297.87 1395.5l544.21 -676.14c3.92,-4.87 5.03,-10.89 3.08,-16.84 -1.95,-5.95 -6.39,-10.16 -12.43,-11.78l-245.97 -65.91c-61.97,-16.6 -97.78,-81.77 -78.49,-142.97l144.46 -458.45c2.63,-8.32 -0.97,-17.13 -8.67,-21.25 -7.7,-4.12 -17.03,-2.2 -22.49,4.61l-545.74 680.58c-3.91,4.88 -5,10.89 -3.06,16.83 1.95,5.94 6.39,10.15 12.42,11.76l246.24 65.98c61.98,16.61 97.79,81.81 78.48,143l-143.18 453.89c-2.62,8.31 0.95,17.12 8.65,21.24 7.69,4.12 17.02,2.23 22.49,-4.57z"/>
  <path class="fil0" d="M1905.59 964.35c0,10.7 -0.67,21.84 -2.01,33.43l-258.76 0c1.79,23.18 9.25,40.9 22.4,53.16 13.14,12.26 29.31,18.38 48.47,18.38 28.53,0 48.37,-12.04 59.51,-36.11l121.69 0c-6.24,24.52 -17.5,46.59 -33.76,66.2 -16.27,19.61 -36.66,34.99 -61.18,46.13 -24.52,11.14 -51.93,16.72 -82.24,16.72 -36.55,0 -69.09,-7.8 -97.62,-23.4 -28.53,-15.6 -50.82,-37.89 -66.86,-66.86 -16.04,-28.97 -24.07,-62.85 -24.07,-101.63 0,-38.78 7.91,-72.66 23.74,-101.63 15.82,-28.97 38,-51.26 66.53,-66.86 28.52,-15.6 61.29,-23.4 98.29,-23.4 36.11,0 68.2,7.58 96.28,22.73 28.08,15.15 50.04,36.78 65.86,64.86 15.82,28.08 23.74,60.84 23.74,98.29zm-490.77 -649.59c11.14,-17.38 26.52,-31.42 46.13,-42.12 19.61,-10.7 42.57,-16.05 68.87,-16.05 30.76,0 58.62,7.8 83.58,23.4 24.96,15.6 44.68,37.89 59.17,66.86 14.49,28.97 21.73,62.63 21.73,100.96 0,38.33 -7.24,72.1 -21.73,101.3 -14.49,29.2 -34.21,51.7 -59.17,67.53 -24.96,15.83 -52.82,23.74 -83.58,23.74 -25.85,0 -48.7,-5.35 -68.53,-16.05 -19.84,-10.7 -35.33,-24.51 -46.47,-41.45l0 200.94 74.89 0 0 94.95 -74.89 0 0 149.77c0,11.14 2.67,19.17 8.02,24.07 5.35,4.9 14.27,7.36 26.75,7.36l40.78 0 0 96.95 -58.17 0c-41.45,0 -73.78,-10.14 -96.95,-30.42 -23.18,-20.28 -34.77,-53.38 -34.77,-99.29l0 -148.43 -45.46 0 0 -94.95 45.46 0 0 -521.88 114.34 0 0 52.82zm373.76 619.5c0,-19.61 -6.68,-35.22 -20.06,-46.81 -13.37,-11.59 -30.09,-17.38 -50.15,-17.38 -19.17,0 -35.33,5.57 -48.47,16.72 -13.15,11.14 -21.28,26.97 -24.41,47.47l143.09 0zm397.83 222.65l-71.54 -103.64 -60.18 103.64 -123.7 0 123.03 -190.56 -126.37 -182.53 128.37 0 71.54 102.97 60.18 -102.97 123.69 0 -125.03 187.89 128.37 185.21 -128.37 0zm380.45 -96.95l0 96.95 -58.17 0c-41.45,0 -73.78,-10.14 -96.95,-30.42 -23.18,-20.28 -34.77,-53.38 -34.77,-99.29l0 -148.43 -45.46 0 0 -94.95 45.46 0 0 -90.93 114.34 0 0 90.93 74.89 0 0 94.95 -74.89 0 0 149.77c0,11.14 2.67,19.17 8.02,24.07 5.35,4.9 14.27,7.36 26.75,7.36l40.78 0zm-988.89 -612.14c0,-28.53 -7.91,-50.93 -23.74,-67.2 -15.82,-16.27 -35.33,-24.4 -58.51,-24.4 -22.73,0 -42.01,8.25 -57.84,24.74 -15.82,16.49 -23.73,39 -23.73,67.53 0,28.53 7.91,51.04 23.73,67.53 15.83,16.5 35.11,24.74 57.84,24.74 22.73,0 42.12,-8.36 58.17,-25.07 16.05,-16.72 24.07,-39.34 24.07,-67.86zm346.35 192.56c-36.55,0 -69.43,-7.8 -98.62,-23.4 -29.2,-15.6 -52.15,-37.89 -68.87,-66.86 -16.72,-28.97 -25.07,-62.85 -25.07,-101.63 0,-38.34 8.47,-72.1 25.41,-101.3 16.94,-29.2 40.12,-51.6 69.54,-67.2 29.42,-15.6 62.4,-23.4 98.96,-23.4 36.55,0 69.54,7.8 98.95,23.4 29.42,15.6 52.6,38 69.54,67.2 16.94,29.2 25.41,62.96 25.41,101.3 0,38.33 -8.58,72.1 -25.74,101.3 -17.16,29.2 -40.56,51.59 -70.21,67.2 -29.65,15.6 -62.74,23.4 -99.29,23.4zm0 -98.95c21.84,0 40.45,-8.03 55.83,-24.07 15.38,-16.04 23.07,-39 23.07,-68.86 0,-29.87 -7.47,-52.82 -22.4,-68.87 -14.93,-16.05 -33.32,-24.07 -55.16,-24.07 -22.29,0 -40.78,7.91 -55.5,23.73 -14.71,15.83 -22.07,38.89 -22.07,69.21 0,29.87 7.25,52.82 21.73,68.86 14.49,16.05 32.65,24.07 54.49,24.07zm791.65 -279.49l-100.96 373.09 -126.37 0 -58.84 -242.04 -60.84 242.04 -125.7 0 -101.63 -373.09 114.33 0 52.82 266.78 62.85 -266.78 121.02 0 63.52 265.44 52.15 -265.44 107.65 0zm395.16 180.53c0,10.7 -0.67,21.84 -2.01,33.43l-258.76 0c1.79,23.18 9.25,40.9 22.4,53.16 13.15,12.26 29.31,18.38 48.47,18.38 28.53,0 48.37,-12.04 59.51,-36.11l121.69 0c-6.24,24.52 -17.5,46.58 -33.76,66.2 -16.27,19.61 -36.66,34.99 -61.18,46.13 -24.52,11.14 -51.93,16.72 -82.24,16.72 -36.55,0 -69.09,-7.8 -97.62,-23.4 -28.53,-15.6 -50.82,-37.89 -66.86,-66.86 -16.05,-28.97 -24.07,-62.85 -24.07,-101.63 0,-38.78 7.91,-72.66 23.74,-101.63 15.82,-28.97 38,-51.26 66.53,-66.86 28.53,-15.6 61.29,-23.4 98.29,-23.4 36.11,0 68.2,7.58 96.28,22.73 28.08,15.15 50.04,36.77 65.86,64.86 15.82,28.08 23.74,60.84 23.74,98.29zm-117.01 -30.09c0,-19.61 -6.68,-35.22 -20.06,-46.81 -13.37,-11.59 -30.09,-17.38 -50.15,-17.38 -19.17,0 -35.33,5.57 -48.47,16.72 -13.15,11.14 -21.28,26.97 -24.41,47.47l143.09 0zm291.52 -88.26c13.37,-20.51 30.09,-36.66 50.14,-48.47 20.06,-11.81 42.35,-17.72 66.86,-17.72l0 121.02 -31.43 0c-28.53,0 -49.92,6.13 -64.19,18.38 -14.27,12.26 -21.4,33.77 -21.4,64.52l0 173.17 -114.34 0 0 -373.09 114.34 0 0 62.18z"/>
  <path class="fil2" d="M2659.8 1160.93c-11.59,0 -21.4,-4.01 -29.42,-12.03 -8.02,-8.02 -12.03,-17.83 -12.03,-29.42 0,-11.59 4.01,-21.4 12.03,-29.42 8.02,-8.02 17.83,-12.03 29.42,-12.03 11.14,0 20.62,4.01 28.42,12.03 7.8,8.02 11.7,17.83 11.7,29.42 0,11.59 -3.9,21.4 -11.7,29.42 -7.8,8.02 -17.27,12.03 -28.42,12.03zm270.12 -377.1c44.58,0 80.68,13.49 108.32,40.45 27.64,26.97 41.45,65.87 41.45,116.67l0 215.97 -60.17 0 0 -207.27c0,-36.55 -9.14,-64.53 -27.42,-83.92 -18.28,-19.39 -43.24,-29.08 -74.89,-29.08 -32.09,0 -57.62,10.04 -76.56,30.09 -18.94,20.05 -28.42,49.26 -28.42,87.59l0 202.59 -60.84 0 0 -366.4 60.84 0 0 52.15c12.04,-18.72 28.42,-33.22 49.14,-43.46 20.73,-10.25 43.58,-15.38 68.54,-15.38zm583.71 175.85c0,11.59 -0.67,23.85 -2.01,36.77l-292.86 0c2.23,36.11 14.6,64.3 37.11,84.58 22.51,20.28 49.81,30.42 81.91,30.42 26.3,0 48.25,-6.13 65.86,-18.38 17.6,-12.25 29.98,-28.64 37.11,-49.14l65.53 0c-9.81,35.21 -29.43,63.86 -58.84,85.92 -29.42,22.06 -65.97,33.1 -109.65,33.1 -34.77,0 -65.86,-7.8 -93.27,-23.4 -27.41,-15.6 -48.93,-37.78 -64.52,-66.53 -15.6,-28.75 -23.4,-62.07 -23.4,-99.96 0,-37.89 7.58,-71.1 22.73,-99.63 15.15,-28.53 36.44,-50.48 63.85,-65.86 27.41,-15.37 58.95,-23.07 94.61,-23.07 34.77,0 65.53,7.58 92.27,22.74 26.74,15.15 47.37,36 61.85,62.52 14.48,26.51 21.73,56.5 21.73,89.93zm-62.85 -12.71c0,-23.18 -5.13,-43.13 -15.38,-59.84 -10.25,-16.71 -24.19,-29.43 -41.79,-38.12 -17.6,-8.69 -37.11,-13.04 -58.51,-13.04 -30.75,0 -56.95,9.81 -78.56,29.42 -21.62,19.61 -33.99,46.8 -37.11,81.57l231.34 0zm217.3 -106.31l0 215.97c0,17.82 3.79,30.43 11.37,37.78 7.57,7.35 20.73,11.03 39.45,11.03l44.8 0 0 51.48 -54.83 0c-33.87,0 -59.29,-7.81 -76.22,-23.4 -16.94,-15.6 -25.41,-41.23 -25.41,-76.89l0 -215.97 -47.47 0 0 -50.14 47.47 0 0 -92.27 60.84 0 0 92.27 95.61 0 0 50.14 -95.61 0z"/>
  <path class="fil0" d="M4046.29 1056.76c11.99,2.55 21.63,8.5 28.91,17.84 7.27,9.35 10.91,20.02 10.91,32 0,17.3 -6.05,31.02 -18.14,41.14 -12.1,10.13 -28.96,15.19 -50.59,15.19l-96.45 0 0 -207.06 93.21 0c21.05,0 37.51,4.82 49.41,14.46 11.89,9.63 17.84,22.71 17.84,39.23 0,12.19 -3.19,22.31 -9.58,30.37 -6.4,8.06 -14.9,13.67 -25.52,16.82zm-74.92 -17.12l33.03 0c8.26,0 14.6,-1.82 19.03,-5.46 4.42,-3.64 6.63,-8.99 6.63,-16.07 0,-7.08 -2.21,-12.49 -6.63,-16.22 -4.42,-3.73 -10.77,-5.6 -19.03,-5.6l-33.03 0 0 43.36zm37.17 82.59c8.45,0 15,-1.91 19.61,-5.75 4.62,-3.83 6.93,-9.38 6.93,-16.66 0,-7.28 -2.41,-12.98 -7.23,-17.11 -4.82,-4.12 -11.45,-6.2 -19.92,-6.2l-36.57 0 0 45.72 37.17 0zm157.21 -125.94l0 41.88 67.54 0 0 38.93 -67.54 0 0 45.42 76.4 0 0 40.41 -126.84 0 0 -207.06 126.84 0 0 40.41 -76.4 0zm258.09 -40.41l0 40.41 -54.86 0 0 166.65 -50.44 0 0 -166.65 -54.86 0 0 -40.41 160.16 0zm154.26 170.49l-77.28 0 -12.39 36.57 -52.8 0 74.92 -207.06 58.4 0 74.91 207.06 -53.38 0 -12.39 -36.57zm-12.98 -38.93l-25.66 -75.8 -25.36 75.8 51.02 0z"/>
 </g>
</svg>
