<?xml version="1.0" encoding="UTF-8"?>
<!DOCTYPE svg PUBLIC "-//W3C//DTD SVG 1.1//EN" "http://www.w3.org/Graphics/SVG/1.1/DTD/svg11.dtd">
<!-- Creator: CorelDRAW 2020 (64 Bit) -->
<svg xmlns="http://www.w3.org/2000/svg" xml:space="preserve" width="0.561mm" height="1.016mm" version="1.1" style="shape-rendering:geometricPrecision; text-rendering:geometricPrecision; image-rendering:optimizeQuality; fill-rule:evenodd; clip-rule:evenodd"
viewBox="0 0 0.05 0.08"
 xmlns:xlink="http://www.w3.org/1999/xlink"
 xmlns:xodm="http://www.corel.com/coreldraw/odm/2003">
 <defs>
  <style type="text/css">
   <![CDATA[
    .fil0 {fill:#16161B}
   ]]>
  </style>
 </defs>
 <g id="Camada_x0020_1">
  <metadata id="CorelCorpID_0Corel-Layer"/>
  <path class="fil0" d="M0.01 0.08l0.03 -0.04c0,-0 0,-0 0,-0 -0,-0 -0,-0 -0,-0l-0.01 -0c-0,-0 -0.01,-0 -0,-0.01l0.01 -0.03c0,-0 -0,-0 -0,-0 -0,-0 -0,-0 -0,0l-0.03 0.04c-0,0 -0,0 -0,0 0,0 0,0 0,0l0.01 0c0,0 0.01,0 0,0.01l-0.01 0.03c-0,0 0,0 0,0 0,0 0,0 0,-0z"/>
 </g>
</svg>
