<?xml version="1.0" encoding="UTF-8"?>
<!DOCTYPE svg PUBLIC "-//W3C//DTD SVG 1.1//EN" "http://www.w3.org/Graphics/SVG/1.1/DTD/svg11.dtd">
<!-- Creator: CorelDRAW 2020 (64 Bit) -->
<svg xmlns="http://www.w3.org/2000/svg" xml:space="preserve" width="23.3754mm" height="42.3333mm" version="1.1" style="shape-rendering:geometricPrecision; text-rendering:geometricPrecision; image-rendering:optimizeQuality; fill-rule:evenodd; clip-rule:evenodd"
viewBox="0 0 74.99 135.81"
 xmlns:xlink="http://www.w3.org/1999/xlink"
 xmlns:xodm="http://www.corel.com/coreldraw/odm/2003">
 <defs>
  <style type="text/css">
   <![CDATA[
    .fil0 {fill:black}
   ]]>
  </style>
 </defs>
 <g id="Camada_x0020_1">
  <metadata id="CorelCorpID_0Corel-Layer"/>
  <path class="fil0" d="M21.89 135.16l52.71 -65.49c0.38,-0.47 0.49,-1.06 0.3,-1.63 -0.19,-0.58 -0.62,-0.98 -1.2,-1.14l-23.82 -6.38c-6,-1.61 -9.47,-7.92 -7.6,-13.85l13.99 -44.4c0.25,-0.81 -0.09,-1.66 -0.84,-2.06 -0.75,-0.4 -1.65,-0.21 -2.18,0.45l-52.86 65.92c-0.38,0.47 -0.49,1.05 -0.3,1.63 0.19,0.58 0.62,0.98 1.2,1.14l23.85 6.39c6,1.61 9.47,7.92 7.6,13.85l-13.87 43.96c-0.25,0.81 0.09,1.66 0.84,2.06 0.74,0.4 1.65,0.22 2.18,-0.44z"/>
 </g>
</svg>
