<?xml version="1.0" encoding="UTF-8"?>
<!DOCTYPE svg PUBLIC "-//W3C//DTD SVG 1.1//EN" "http://www.w3.org/Graphics/SVG/1.1/DTD/svg11.dtd">
<!-- Creator: CorelDRAW 2020 (64 Bit) -->
<svg xmlns="http://www.w3.org/2000/svg" xml:space="preserve" width="11.8409mm" height="6.9067mm" version="1.1" style="shape-rendering:geometricPrecision; text-rendering:geometricPrecision; image-rendering:optimizeQuality; fill-rule:evenodd; clip-rule:evenodd"
viewBox="0 0 22.67 13.22"
 xmlns:xlink="http://www.w3.org/1999/xlink"
 xmlns:xodm="http://www.corel.com/coreldraw/odm/2003">
 <defs>
  <style type="text/css">
   <![CDATA[
    .fil1 {fill:#FEFEFE;fill-rule:nonzero}
    .fil0 {fill:#CD3539;fill-rule:nonzero}
    .fil2 {fill:#3B4367;fill-rule:nonzero}
   ]]>
  </style>
 </defs>
 <g id="Camada_x0020_1">
  <metadata id="CorelCorpID_0Corel-Layer"/>
  <g id="_1892482700864">
   <polygon class="fil0" points="-0,13.22 22.67,13.22 22.67,12.21 -0,12.21 "/>
   <polygon class="fil1" points="-0,12.21 22.67,12.21 22.67,11.19 -0,11.19 "/>
   <polygon class="fil0" points="-0,11.19 22.67,11.19 22.67,10.17 -0,10.17 "/>
   <polygon class="fil1" points="-0,10.17 22.67,10.17 22.67,9.16 -0,9.16 "/>
   <polygon class="fil0" points="-0,9.16 22.67,9.16 22.67,8.14 -0,8.14 "/>
   <polygon class="fil1" points="-0,8.14 22.67,8.14 22.67,7.12 -0,7.12 "/>
   <polygon class="fil0" points="-0,7.12 22.67,7.12 22.67,6.1 -0,6.1 "/>
   <polygon class="fil1" points="-0,6.1 22.67,6.1 22.67,5.09 -0,5.09 "/>
   <polygon class="fil0" points="-0,5.09 22.67,5.09 22.67,4.07 -0,4.07 "/>
   <polygon class="fil1" points="-0,4.07 22.67,4.07 22.67,3.05 -0,3.05 "/>
   <polygon class="fil0" points="-0,3.05 22.67,3.05 22.67,2.04 -0,2.04 "/>
   <polygon class="fil1" points="-0,2.04 22.67,2.04 22.67,1.02 -0,1.02 "/>
   <polygon class="fil0" points="-0,1.02 22.67,1.02 22.67,0 -0,0 "/>
   <polygon class="fil2" points="-0,7.12 10.35,7.12 10.35,0 -0,0 "/>
   <path class="fil1" d="M0.94 0.78l0.09 0.27 0.28 0 -0.23 0.17 0.09 0.27 -0.23 -0.17 -0.23 0.17 0.09 -0.27 -0.23 -0.17 0.28 0 0.09 -0.27zm8.33 4.75l0.09 0.27 0.28 0 -0.23 0.16 0.09 0.27 -0.23 -0.17 -0.23 0.17 0.09 -0.27 -0.23 -0.16 0.28 0 0.09 -0.27zm0 -1.19l0.09 0.27 0.28 0 -0.23 0.17 0.09 0.27 -0.23 -0.17 -0.23 0.17 0.09 -0.27 -0.23 -0.17 0.28 0 0.09 -0.27zm0 -1.19l0.09 0.27 0.28 0 -0.23 0.17 0.09 0.27 -0.23 -0.17 -0.23 0.17 0.09 -0.27 -0.23 -0.17 0.28 0 0.09 -0.27zm0 -1.19l0.09 0.27 0.28 0 -0.23 0.17 0.09 0.27 -0.23 -0.17 -0.23 0.17 0.09 -0.27 -0.23 -0.17 0.28 0 0.09 -0.27zm0 -1.19l0.09 0.27 0.28 0 -0.23 0.17 0.09 0.27 -0.23 -0.17 -0.23 0.17 0.09 -0.27 -0.23 -0.17 0.28 0 0.09 -0.27zm-0.84 4.19l0.09 0.27 0.28 0 -0.23 0.17 0.08 0.27 -0.23 -0.17 -0.23 0.17 0.09 -0.27 -0.23 -0.17 0.28 0 0.09 -0.27zm0 -1.19l0.09 0.27 0.28 0 -0.23 0.17 0.08 0.27 -0.23 -0.17 -0.23 0.17 0.09 -0.27 -0.23 -0.17 0.28 0 0.09 -0.27zm0 -1.19l0.09 0.27 0.28 0 -0.23 0.17 0.08 0.27 -0.23 -0.16 -0.23 0.16 0.09 -0.27 -0.23 -0.17 0.28 0 0.09 -0.27zm0 -1.19l0.09 0.27 0.28 0 -0.23 0.17 0.08 0.27 -0.23 -0.17 -0.23 0.17 0.09 -0.27 -0.23 -0.17 0.28 0 0.09 -0.27zm-0.83 4.13l0.09 0.27 0.28 0 -0.23 0.16 0.09 0.27 -0.23 -0.17 -0.23 0.17 0.09 -0.27 -0.23 -0.16 0.28 0 0.09 -0.27zm0 -1.19l0.09 0.27 0.28 0 -0.23 0.17 0.09 0.27 -0.23 -0.17 -0.23 0.17 0.09 -0.27 -0.23 -0.17 0.28 0 0.09 -0.27zm0 -1.19l0.09 0.27 0.28 0 -0.23 0.17 0.09 0.27 -0.23 -0.17 -0.23 0.17 0.09 -0.27 -0.23 -0.17 0.28 0 0.09 -0.27zm0 -1.19l0.09 0.27 0.28 0 -0.23 0.17 0.09 0.27 -0.23 -0.17 -0.23 0.17 0.09 -0.27 -0.23 -0.17 0.28 0 0.09 -0.27zm0 -1.19l0.09 0.27 0.28 0 -0.23 0.17 0.09 0.27 -0.23 -0.17 -0.23 0.17 0.09 -0.27 -0.23 -0.17 0.28 0 0.09 -0.27zm-0.84 4.19l0.09 0.27 0.29 0 -0.23 0.17 0.09 0.27 -0.23 -0.17 -0.23 0.17 0.09 -0.27 -0.23 -0.17 0.28 0 0.09 -0.27zm0 -1.19l0.09 0.27 0.29 0 -0.23 0.17 0.09 0.27 -0.23 -0.17 -0.23 0.17 0.09 -0.27 -0.23 -0.17 0.28 0 0.09 -0.27zm0 -1.19l0.09 0.27 0.29 0 -0.23 0.17 0.09 0.27 -0.23 -0.16 -0.23 0.16 0.09 -0.27 -0.23 -0.17 0.28 0 0.09 -0.27zm0 -1.19l0.09 0.27 0.29 0 -0.23 0.17 0.09 0.27 -0.23 -0.17 -0.23 0.17 0.09 -0.27 -0.23 -0.17 0.28 0 0.09 -0.27zm-0.83 4.13l0.09 0.27 0.28 0 -0.23 0.16 0.09 0.27 -0.23 -0.17 -0.23 0.17 0.09 -0.27 -0.23 -0.16 0.28 0 0.09 -0.27zm0 -1.19l0.09 0.27 0.28 0 -0.23 0.17 0.09 0.27 -0.23 -0.17 -0.23 0.17 0.09 -0.27 -0.23 -0.17 0.28 0 0.09 -0.27zm0 -1.19l0.09 0.27 0.28 0 -0.23 0.17 0.09 0.27 -0.23 -0.17 -0.23 0.17 0.09 -0.27 -0.23 -0.17 0.28 0 0.09 -0.27zm0 -1.19l0.09 0.27 0.28 0 -0.23 0.17 0.09 0.27 -0.23 -0.17 -0.23 0.17 0.09 -0.27 -0.23 -0.17 0.28 0 0.09 -0.27zm0 -1.19l0.09 0.27 0.28 0 -0.23 0.17 0.09 0.27 -0.23 -0.17 -0.23 0.17 0.09 -0.27 -0.23 -0.17 0.28 0 0.09 -0.27zm-0.84 4.19l0.09 0.27 0.28 0 -0.23 0.17 0.09 0.27 -0.23 -0.17 -0.23 0.17 0.09 -0.27 -0.23 -0.17 0.28 0 0.09 -0.27zm0 -1.19l0.09 0.27 0.28 0 -0.23 0.17 0.09 0.27 -0.23 -0.17 -0.23 0.17 0.09 -0.27 -0.23 -0.17 0.28 0 0.09 -0.27zm0 -1.19l0.09 0.27 0.28 0 -0.23 0.17 0.09 0.27 -0.23 -0.16 -0.23 0.16 0.09 -0.27 -0.23 -0.17 0.28 0 0.09 -0.27zm0 -1.19l0.09 0.27 0.28 0 -0.23 0.17 0.09 0.27 -0.23 -0.17 -0.23 0.17 0.09 -0.27 -0.23 -0.17 0.28 0 0.09 -0.27zm-0.83 4.13l0.09 0.27 0.28 0 -0.23 0.16 0.09 0.27 -0.23 -0.17 -0.23 0.17 0.09 -0.27 -0.23 -0.16 0.28 0 0.09 -0.27zm0 -1.19l0.09 0.27 0.28 0 -0.23 0.17 0.09 0.27 -0.23 -0.17 -0.23 0.17 0.09 -0.27 -0.23 -0.17 0.28 0 0.09 -0.27zm0 -1.19l0.09 0.27 0.28 0 -0.23 0.17 0.09 0.27 -0.23 -0.17 -0.23 0.17 0.09 -0.27 -0.23 -0.17 0.28 0 0.09 -0.27zm0 -1.19l0.09 0.27 0.28 0 -0.23 0.17 0.09 0.27 -0.23 -0.17 -0.23 0.17 0.09 -0.27 -0.23 -0.17 0.28 0 0.09 -0.27zm0 -1.19l0.09 0.27 0.28 0 -0.23 0.17 0.09 0.27 -0.23 -0.17 -0.23 0.17 0.09 -0.27 -0.23 -0.17 0.28 0 0.09 -0.27zm-0.84 4.19l0.09 0.27 0.29 0 -0.23 0.17 0.09 0.27 -0.23 -0.17 -0.23 0.17 0.09 -0.27 -0.23 -0.17 0.28 0 0.09 -0.27zm0 -1.19l0.09 0.27 0.29 0 -0.23 0.17 0.09 0.27 -0.23 -0.17 -0.23 0.17 0.09 -0.27 -0.23 -0.17 0.28 0 0.09 -0.27zm0 -1.19l0.09 0.27 0.29 0 -0.23 0.17 0.09 0.27 -0.23 -0.16 -0.23 0.16 0.09 -0.27 -0.23 -0.17 0.28 0 0.09 -0.27zm0 -1.19l0.09 0.27 0.29 0 -0.23 0.17 0.09 0.27 -0.23 -0.17 -0.23 0.17 0.09 -0.27 -0.23 -0.17 0.28 0 0.09 -0.27zm-0.83 4.13l0.09 0.27 0.28 0 -0.23 0.16 0.09 0.27 -0.23 -0.17 -0.23 0.17 0.09 -0.27 -0.23 -0.16 0.28 0 0.09 -0.27zm0 -1.19l0.09 0.27 0.28 0 -0.23 0.17 0.09 0.27 -0.23 -0.17 -0.23 0.17 0.09 -0.27 -0.23 -0.17 0.28 0 0.09 -0.27zm0 -1.19l0.09 0.27 0.28 0 -0.23 0.17 0.09 0.27 -0.23 -0.17 -0.23 0.17 0.09 -0.27 -0.23 -0.17 0.28 0 0.09 -0.27zm0 -1.19l0.09 0.27 0.28 0 -0.23 0.17 0.09 0.27 -0.23 -0.17 -0.23 0.17 0.09 -0.27 -0.23 -0.17 0.28 0 0.09 -0.27zm0 -1.19l0.09 0.27 0.28 0 -0.23 0.17 0.09 0.27 -0.23 -0.17 -0.23 0.17 0.09 -0.27 -0.23 -0.17 0.28 0 0.09 -0.27zm-0.84 4.19l0.08 0.27 0.28 0 -0.23 0.17 0.09 0.27 -0.23 -0.17 -0.23 0.17 0.09 -0.27 -0.23 -0.17 0.28 0 0.09 -0.27zm0 -1.19l0.08 0.27 0.28 0 -0.23 0.17 0.09 0.27 -0.23 -0.17 -0.23 0.17 0.09 -0.27 -0.23 -0.17 0.28 0 0.09 -0.27zm0 -1.19l0.08 0.27 0.28 0 -0.23 0.17 0.09 0.27 -0.23 -0.16 -0.23 0.16 0.09 -0.27 -0.23 -0.17 0.28 0 0.09 -0.27zm0 -1.19l0.08 0.27 0.28 0 -0.23 0.17 0.09 0.27 -0.23 -0.17 -0.23 0.17 0.09 -0.27 -0.23 -0.17 0.28 0 0.09 -0.27zm-0.83 4.13l0.09 0.27 0.28 0 -0.23 0.16 0.09 0.27 -0.23 -0.17 -0.23 0.17 0.09 -0.27 -0.23 -0.16 0.28 0 0.09 -0.27zm0 -1.19l0.09 0.27 0.28 0 -0.23 0.17 0.09 0.27 -0.23 -0.17 -0.23 0.17 0.09 -0.27 -0.23 -0.17 0.28 0 0.09 -0.27zm0 -1.19l0.09 0.27 0.28 0 -0.23 0.17 0.09 0.27 -0.23 -0.17 -0.23 0.17 0.09 -0.27 -0.23 -0.17 0.28 0 0.09 -0.27zm0 -1.19l0.09 0.27 0.28 0 -0.23 0.17 0.09 0.27 -0.23 -0.17 -0.23 0.17 0.09 -0.27 -0.23 -0.17 0.28 0 0.09 -0.27z"/>
  </g>
 </g>
</svg>
